<?xml version="1.0" standalone="no"?>
<!DOCTYPE svg PUBLIC "-//W3C//DTD SVG 20010904//EN"
 "http://www.w3.org/TR/2001/REC-SVG-20010904/DTD/svg10.dtd">
<svg version="1.0" xmlns="http://www.w3.org/2000/svg"
 width="947.488712pt" height="173.530638pt" viewBox="0 0 947.488712 173.530638"
 preserveAspectRatio="xMidYMid meet">
<metadata>
Created by potrace 1.12, written by Peter Selinger 2001-2015
</metadata>
<g transform="translate(-114.728104,417.855991) scale(0.100000,-0.100000)"
fill="#FFF" stroke="none">
<path d="M1853 4165 c-99 -18 -166 -41 -252 -86 -62 -34 -191 -124 -191 -135
0 -2 262 -4 583 -4 l582 1 -48 43 c-102 92 -267 164 -420 185 -98 14 -163 13
-254 -4z"/>
<path d="M3295 3958 c-4 -13 -45 -249 -45 -262 0 -3 86 -6 191 -6 159 0 190
-2 186 -14 -18 -46 -36 -140 -112 -583 -47 -271 -85 -495 -85 -498 0 -3 60 -5
134 -5 l134 0 6 28 c3 15 42 235 86 490 44 255 83 474 86 487 3 12 21 38 40
56 l35 34 114 3 115 4 32 61 c38 71 105 142 174 186 l49 31 -568 0 c-445 0
-569 -3 -572 -12z"/>
<path d="M4591 3959 c-134 -23 -270 -128 -335 -260 -33 -69 -41 -108 -124
-588 -61 -353 -85 -514 -77 -517 6 -3 67 -3 136 -2 l124 3 45 260 45 260 268
3 c147 1 267 4 267 5 0 7 40 233 45 255 l5 22 -265 0 c-246 0 -265 1 -265 18
0 48 32 190 48 212 40 55 67 60 310 60 122 0 222 4 222 8 0 5 9 58 20 118 11
60 20 119 20 132 l0 22 -217 -1 c-120 -1 -242 -5 -272 -10z"/>
<path d="M5935 3958 c-2 -7 -54 -305 -115 -663 -62 -357 -114 -662 -117 -677
l-5 -28 135 0 135 0 6 28 c9 44 106 606 106 616 0 5 2 7 5 5 2 -3 16 -144 30
-314 14 -171 28 -316 30 -323 3 -9 27 -12 86 -10 l82 3 136 318 c75 174 137
313 139 308 2 -5 -20 -140 -47 -301 -28 -161 -51 -300 -51 -311 0 -18 9 -19
130 -19 95 0 132 3 135 13 6 15 235 1337 235 1355 0 10 -33 12 -147 10 l-146
-3 -139 -330 c-226 -539 -250 -596 -254 -592 -2 2 -17 192 -34 423 -16 230
-33 438 -36 462 l-5 42 -145 0 c-107 0 -146 -3 -149 -12z"/>
<path d="M7085 3948 c-3 -13 -54 -311 -115 -663 -60 -352 -113 -652 -116 -667
l-6 -28 425 0 425 0 12 73 c7 39 18 102 24 140 l13 67 -289 0 c-158 0 -288 1
-288 3 0 1 11 61 23 132 l23 130 234 5 234 5 23 130 c12 72 23 133 23 138 0 4
-103 7 -230 7 -212 0 -230 1 -230 18 0 9 9 66 20 126 11 60 20 113 20 118 0 4
131 8 290 8 160 0 290 4 290 8 0 5 9 58 20 118 11 60 20 119 20 132 l0 22
-420 0 -420 0 -5 -22z"/>
<path d="M8026 3948 c-3 -13 -12 -63 -21 -113 -9 -49 -18 -102 -21 -117 l-6
-28 156 0 c88 0 156 -4 156 -9 0 -5 -40 -243 -90 -529 -49 -286 -90 -529 -90
-541 0 -20 4 -21 129 -21 72 0 132 3 134 8 3 4 47 251 98 550 l94 542 157 0
c87 0 158 3 158 8 0 4 9 59 20 122 11 63 20 123 20 133 0 16 -28 17 -445 17
l-445 0 -4 -22z"/>
<path d="M9151 3888 c-21 -46 -159 -333 -306 -638 -147 -305 -278 -579 -291
-608 l-24 -53 142 3 141 3 66 150 66 150 208 3 c182 2 207 1 207 -13 0 -18 17
-190 26 -252 l5 -43 140 0 c88 0 139 4 139 10 0 27 -172 1355 -176 1362 -3 4
-73 8 -155 8 l-150 0 -38 -82z m144 -196 c-5 -24 21 -351 41 -504 l6 -48 -146
0 c-80 0 -146 2 -146 5 0 2 45 107 101 232 56 125 110 254 121 286 21 60 34
76 23 29z"/>
<path d="M9951 3908 c-6 -35 -58 -337 -116 -671 -58 -335 -105 -617 -105 -628
0 -18 12 -19 420 -19 l420 0 5 23 c2 12 12 65 20 117 9 52 19 105 22 118 l5
22 -286 0 c-267 0 -286 1 -286 18 0 9 40 251 90 537 49 286 90 526 90 533 0 9
-33 12 -134 12 l-134 0 -11 -62z"/>
<path d="M1209 3645 c-45 -101 -62 -194 -62 -335 0 -107 5 -152 22 -214 11
-44 23 -82 26 -85 7 -6 90 75 417 412 l260 267 -321 0 -322 0 -20 -45z"/>
<path d="M2408 3680 c-125 -21 -247 -74 -353 -152 -62 -46 -728 -720 -733
-741 -1 -7 13 -30 32 -52 l33 -39 379 381 c356 357 384 382 454 417 126 61
207 76 408 76 l174 0 -6 23 c-3 13 -12 40 -21 60 l-15 37 -153 -1 c-83 -1
-173 -5 -199 -9z"/>
<path d="M5142 3268 c-12 -73 -22 -136 -22 -140 0 -5 119 -8 264 -8 l264 0 6
28 c3 15 12 68 21 117 9 50 18 100 21 113 l4 22 -268 0 -267 0 -23 -132z"/>
<path d="M2390 3297 c-76 -25 -140 -71 -225 -156 l-59 -61 355 0 356 0 11 64
c7 35 12 89 12 120 l0 56 -192 0 c-173 0 -200 -3 -258 -23z"/>
<path d="M1727 2692 c-75 -75 -137 -140 -137 -143 0 -12 118 -59 194 -79 214
-54 432 -26 626 83 75 42 253 205 279 255 l12 22 -418 0 -418 0 -138 -138z"/>
</g>
</svg>
